<svg width="400" height="400" viewBox="0 0 400 400" fill="none" xmlns="http://www.w3.org/2000/svg">
  <!-- Background -->
  <rect width="400" height="400" rx="32" fill="url(#gradient)"/>
  
  <!-- Profile Circle -->
  <circle cx="200" cy="180" r="80" fill="url(#profileGradient)" stroke="white" stroke-width="4"/>
  
  <!-- Person Icon -->
  <g transform="translate(160, 140)">
    <!-- Head -->
    <circle cx="40" cy="30" r="20" fill="white"/>
    <!-- Body -->
    <path d="M20 60 C20 45, 30 35, 40 35 C50 35, 60 45, 60 60 L60 80 L20 80 Z" fill="white"/>
  </g>
  
  <!-- Security Badge -->
  <g transform="translate(320, 80)">
    <circle cx="40" cy="40" r="35" fill="url(#badgeGradient)" stroke="white" stroke-width="3"/>
    <path d="M25 40 L35 50 L55 30" stroke="white" stroke-width="3" stroke-linecap="round" stroke-linejoin="round"/>
  </g>
  
  <!-- Code Elements -->
  <g transform="translate(50, 320)" opacity="0.7">
    <rect x="0" y="0" width="60" height="4" rx="2" fill="white"/>
    <rect x="0" y="12" width="40" height="4" rx="2" fill="white"/>
    <rect x="0" y="24" width="50" height="4" rx="2" fill="white"/>
  </g>
  
  <!-- Network Lines -->
  <g transform="translate(300, 300)" opacity="0.5">
    <circle cx="0" cy="0" r="3" fill="white"/>
    <circle cx="30" cy="0" r="3" fill="white"/>
    <circle cx="15" cy="25" r="3" fill="white"/>
    <line x1="0" y1="0" x2="30" y2="0" stroke="white" stroke-width="2"/>
    <line x1="0" y1="0" x2="15" y2="25" stroke="white" stroke-width="2"/>
    <line x1="30" y1="0" x2="15" y2="25" stroke="white" stroke-width="2"/>
  </g>
  
  <!-- Gradients -->
  <defs>
    <linearGradient id="gradient" x1="0%" y1="0%" x2="100%" y2="100%">
      <stop offset="0%" style="stop-color:#ff6a00;stop-opacity:1" />
      <stop offset="100%" style="stop-color:#ff8c42;stop-opacity:1" />
    </linearGradient>
    <linearGradient id="profileGradient" x1="0%" y1="0%" x2="100%" y2="100%">
      <stop offset="0%" style="stop-color:#ffffff;stop-opacity:0.9" />
      <stop offset="100%" style="stop-color:#f0f0f0;stop-opacity:0.9" />
    </linearGradient>
    <linearGradient id="badgeGradient" x1="0%" y1="0%" x2="100%" y2="100%">
      <stop offset="0%" style="stop-color:#4ade80;stop-opacity:1" />
      <stop offset="100%" style="stop-color:#22c55e;stop-opacity:1" />
    </linearGradient>
  </defs>
</svg>
